<?xml version="1.0" standalone="no"?><svg xmlns="http://www.w3.org/2000/svg" viewBox="0 0 1440 320"><path fill="#ffc107" fill-opacity="1" d="M0,160L20,165.3C40,171,80,181,120,186.7C160,192,200,192,240,181.3C280,171,320,149,360,165.3C400,181,440,235,480,266.7C520,299,560,309,600,304C640,299,680,277,720,240C760,203,800,149,840,144C880,139,920,181,960,197.3C1000,213,1040,203,1080,186.7C1120,171,1160,149,1200,149.3C1240,149,1280,171,1320,165.3C1360,160,1400,128,1420,112L1440,96L1440,320L1420,320C1400,320,1360,320,1320,320C1280,320,1240,320,1200,320C1160,320,1120,320,1080,320C1040,320,1000,320,960,320C920,320,880,320,840,320C800,320,760,320,720,320C680,320,640,320,600,320C560,320,520,320,480,320C440,320,400,320,360,320C320,320,280,320,240,320C200,320,160,320,120,320C80,320,40,320,20,320L0,320Z"></path></svg>