<?xml version="1.0" standalone="no"?><svg xmlns="http://www.w3.org/2000/svg" viewBox="0 0 1440 320"><path fill="#f3f4f5" fill-opacity="1" d="M0,128L21.8,154.7C43.6,181,87,235,131,224C174.5,213,218,139,262,133.3C305.5,128,349,192,393,202.7C436.4,213,480,171,524,133.3C567.3,96,611,64,655,96C698.2,128,742,224,785,224C829.1,224,873,128,916,101.3C960,75,1004,117,1047,149.3C1090.9,181,1135,203,1178,224C1221.8,245,1265,267,1309,245.3C1352.7,224,1396,160,1418,128L1440,96L1440,320L1418.2,320C1396.4,320,1353,320,1309,320C1265.5,320,1222,320,1178,320C1134.5,320,1091,320,1047,320C1003.6,320,960,320,916,320C872.7,320,829,320,785,320C741.8,320,698,320,655,320C610.9,320,567,320,524,320C480,320,436,320,393,320C349.1,320,305,320,262,320C218.2,320,175,320,131,320C87.3,320,44,320,22,320L0,320Z"></path></svg>